<?xml version="1.0" encoding="UTF-8" standalone="no"?>
<svg
   id="Capa_1"
   data-name="Capa 1"
   viewBox="0 0 851.87 265"
   version="1.1"
   sodipodi:docname="logo-large.svg"
   width="851.87"
   height="265"
   inkscape:export-batch-path="C:\Users\LUIS\Documents\PROYECTOS-WEB\Trinidad\src\assets"
   inkscape:export-batch-name="logo-large"
   inkscape:version="1.4 (86a8ad7, 2024-10-11)"
   xmlns:inkscape="http://www.inkscape.org/namespaces/inkscape"
   xmlns:sodipodi="http://sodipodi.sourceforge.net/DTD/sodipodi-0.dtd"
   xmlns="http://www.w3.org/2000/svg"
   xmlns:svg="http://www.w3.org/2000/svg">
  <sodipodi:namedview
     id="namedview27"
     pagecolor="#ffffff"
     bordercolor="#000000"
     borderopacity="0.25"
     inkscape:showpageshadow="2"
     inkscape:pageopacity="0.0"
     inkscape:pagecheckerboard="0"
     inkscape:deskcolor="#d1d1d1"
     showgrid="true"
     inkscape:zoom="0.8737476"
     inkscape:cx="426.32449"
     inkscape:cy="132.1892"
     inkscape:window-width="1680"
     inkscape:window-height="987"
     inkscape:window-x="-8"
     inkscape:window-y="-8"
     inkscape:window-maximized="1"
     inkscape:current-layer="Capa_1">
    <inkscape:grid
       id="grid27"
       units="px"
       originx="0"
       originy="0"
       spacingx="1"
       spacingy="1"
       empcolor="#0099e5"
       empopacity="0.30196078"
       color="#0099e5"
       opacity="0.14902"
       empspacing="5"
       enabled="true"
       visible="true" />
  </sodipodi:namedview>
  <defs
     id="defs1">
    <style
       id="style1">
      .cls-1 {
        fill: #fff;
      }
    </style>
  </defs>
  <g
     id="g27"
     transform="translate(0.00174811,-292.68512)">
    <path
       class="cls-1"
       d="m 791.15,415.05 v 67.09 h -13.43 l -0.79,-5.79 -1.97,2.9 c -6.67,5.86 -21.04,5.27 -26.72,-1.72 -6.47,-7.97 -6.15,-31.78 1.17,-39.33 5.72,-5.9 19.28,-6.33 25.56,-1.05 l 1.7,2.38 v -24.47 h 14.48 z m -24.54,29.28 c -8.02,0.77 -8.18,10.06 -7.86,16.38 0.38,7.24 2.35,12.24 10.67,11.43 6.64,-0.65 7.78,-6.31 8.03,-11.97 0.34,-7.75 -0.98,-16.78 -10.85,-15.84 z"
       id="path1" />
    <path
       class="cls-1"
       d="m 679.5,415.05 v 67.09 h -13.43 l -0.79,-5.79 -1.97,2.9 c -6.67,5.86 -21.04,5.27 -26.72,-1.72 -6.47,-7.97 -6.15,-31.78 1.17,-39.33 5.72,-5.9 19.28,-6.33 25.56,-1.05 l 1.7,2.38 v -24.47 h 14.48 z m -24.54,29.28 c -8.02,0.77 -8.18,10.06 -7.86,16.38 0.38,7.24 2.35,12.24 10.67,11.43 6.64,-0.65 7.78,-6.31 8.03,-11.97 0.34,-7.75 -0.98,-16.78 -10.85,-15.84 z"
       id="path2" />
    <path
       class="cls-1"
       d="m 734.01,482.13 h -13.03 c -0.75,-1.13 -0.78,-2.78 -1.18,-4.09 -0.09,-0.29 0.18,-0.47 -0.4,-0.38 -4.84,5.87 -15.64,6.71 -22.39,4.21 -7.83,-2.89 -9.82,-11.73 -7.57,-19.15 3.67,-12.07 20.21,-8.79 29.82,-9.27 0.46,-5.12 -1.51,-7.01 -6.44,-7.38 -4.21,-0.31 -8.89,0.11 -13.04,0.8 v -12.36 c 8.25,-0.88 21.78,-2.23 28.89,2.83 2.49,1.77 5.34,6.04 5.34,9.14 z m -14.75,-19.2 c -3.59,0.39 -11.86,-0.92 -14.73,1.2 -1.94,1.43 -2.05,5.37 -0.03,6.84 3.15,2.27 12.45,0.71 14.76,-2.9 v -5.13 z"
       id="path3" />
    <path
       class="cls-1"
       d="m 409.35,482.13 h -13.03 c -0.75,-1.13 -0.78,-2.78 -1.18,-4.09 -0.09,-0.29 0.18,-0.47 -0.4,-0.38 -4.84,5.87 -15.64,6.71 -22.39,4.21 -7.83,-2.89 -9.82,-11.73 -7.57,-19.15 3.67,-12.07 20.21,-8.79 29.82,-9.27 0.46,-5.12 -1.51,-7.01 -6.44,-7.38 -4.21,-0.31 -8.89,0.11 -13.04,0.8 v -12.36 c 8.25,-0.88 21.78,-2.23 28.89,2.83 2.49,1.77 5.34,6.04 5.34,9.14 z m -14.75,-19.2 c -3.59,0.39 -11.86,-0.92 -14.73,1.2 -1.94,1.43 -2.05,5.37 -0.03,6.84 3.15,2.27 12.45,0.71 14.76,-2.9 v -5.13 z"
       id="path4" />
    <path
       class="cls-1"
       d="m 597.09,482.13 h -14.75 v -31.96 c 0,-0.49 -0.69,-2.19 -1,-2.68 -2.18,-3.43 -11.04,-2.61 -13.48,0.58 -0.2,0.27 -1.32,2.23 -1.32,2.37 v 31.7 h -14.75 v -47.62 h 14.75 v 5 l 3.6,-3.37 c 6.26,-3.55 19.22,-4.11 24.04,1.93 1.23,1.54 2.9,5.72 2.9,7.62 v 36.44 z"
       id="path5" />
    <polygon
       class="cls-1"
       points="486.23,420.83 486.23,434.25 470.96,434.25 470.96,482.13 455.69,482.13 455.69,434.25 440.15,434.25 440.15,420.83 "
       id="polygon5" />
    <polygon
       class="cls-1"
       points="335.62,468.72 359.06,468.72 359.06,482.13 320.09,482.13 320.09,420.83 335.23,420.83 335.62,421.23 "
       id="polygon6" />
    <path
       class="cls-1"
       d="m 504.4,442.41 1.73,-3.13 c 1.81,-3.1 4.7,-4.85 8.21,-5.48 0.74,-0.13 4.06,-0.61 4.43,-0.08 l -0.44,12.88 c -5.55,-0.09 -11.27,1.41 -13.26,7.14 -0.13,0.37 -0.66,2.27 -0.66,2.49 v 25.91 h -14.75 v -47.62 h 14.75 v 7.89 z"
       id="path6" />
    <rect
       class="cls-1"
       x="525.72998"
       y="434.51999"
       width="14.75"
       height="47.619999"
       id="rect6" />
    <rect
       class="cls-1"
       x="608.15002"
       y="434.51999"
       width="14.75"
       height="47.619999"
       id="rect7" />
    <path
       class="cls-1"
       d="m 549.03,402.16 -3.82,-5.13 c -6.7,-0.29 -10.82,-2.35 -12.04,-9.28 -2.15,-12.19 1.82,-22.74 16.16,-19.3 8.4,2.02 8.56,13.2 7.13,20.09 -0.83,4 -3.3,7.3 -7.56,7.84 l 4.21,5.79 h -4.08 z m -5.98,-30.97 c -7.03,0.86 -6.68,9.02 -6.27,14.54 0.3,4.08 1.52,7.13 5.94,7.75 6.86,0.96 9.94,-1.43 10.41,-8.27 0.54,-7.98 -0.13,-15.22 -10.07,-14.01 z"
       id="path7" />
    <path
       class="cls-1"
       d="m 668.71,377.95 0.51,-3.3 h 3.19 c 0,0 0.25,0.54 0.25,0.54 -0.37,6.52 0.49,13.55 0,20 -0.69,9.33 -8.34,10.09 -16.06,8.79 v -3.14 c 6.69,1.53 13.5,0.69 12.36,-7.89 -0.44,0.11 -0.44,0.77 -0.79,1.18 -2.6,3.1 -9.85,2.98 -12.65,0.27 -3.49,-3.38 -3.4,-13.43 -0.63,-17.22 2.77,-3.79 11.98,-4.37 13.81,0.77 z m -7.17,-0.71 c -2.11,0.23 -3.45,1.17 -4.2,3.16 -0.84,2.24 -0.86,8.05 0.12,10.24 1.72,3.83 8.47,3.65 10.51,0.38 1.41,-2.26 1.4,-8.31 0.35,-10.71 -1.14,-2.59 -4.16,-3.37 -6.77,-3.08 z"
       id="path8" />
    <path
       class="cls-1"
       d="m 465.96,365.85 v 30.52 h -3.15 c -0.13,-0.74 -0.16,-1.51 -0.29,-2.23 -0.05,-0.3 0.22,-0.85 -0.38,-0.67 -0.13,0.04 -1.13,1.54 -1.73,1.96 -3.26,2.3 -9.48,1.86 -12.09,-1.31 -3.12,-3.8 -2.91,-14.62 0.92,-18.01 2.69,-2.39 9.3,-2.69 11.86,0 0.47,0.49 0.64,1.27 1.18,1.59 v -11.84 h 3.69 z m -14.13,26.74 c 2.19,2.02 7.45,1.52 9.24,-0.98 1.73,-2.42 1.73,-9.42 0.1,-11.91 -2.25,-3.44 -8.84,-3.58 -10.46,0.51 -0.95,2.43 -0.96,8.51 0.09,10.89 0.15,0.34 0.76,1.24 1.02,1.48 z"
       id="path9" />
    <path
       class="cls-1"
       d="m 515.99,365.85 v 30.52 h -3.15 c -0.13,-0.74 -0.16,-1.51 -0.29,-2.23 -0.05,-0.3 0.22,-0.85 -0.38,-0.67 -0.13,0.04 -1.13,1.54 -1.73,1.96 -3.26,2.3 -9.48,1.86 -12.09,-1.31 -3.12,-3.8 -2.91,-14.62 0.92,-18.01 2.69,-2.39 9.3,-2.69 11.86,0 0.47,0.49 0.64,1.27 1.18,1.59 V 365.86 H 516 Z m -14.13,26.74 c 2.19,2.02 7.45,1.52 9.24,-0.98 1.79,-2.5 1.73,-9.42 0.1,-11.91 -2.25,-3.44 -8.84,-3.58 -10.46,0.51 -0.95,2.43 -0.96,8.51 0.09,10.89 0.15,0.34 0.76,1.24 1.02,1.48 z"
       id="path10" />
    <path
       class="cls-1"
       d="m 383.54,368.48 h 3.42 c 0.28,5.9 -0.39,12.16 0,18.02 0.11,1.65 0.36,4.34 1.58,5.53 2.01,1.96 8.89,2.08 10.91,0.11 0.53,-0.52 1.47,-2.58 1.47,-3.27 v -20.39 h 3.69 v 20.65 c 0,1.48 -1.41,4.31 -2.55,5.35 -3.16,2.9 -11.7,3.11 -15.18,0.79 -1.25,-0.83 -3.34,-3.61 -3.34,-5.09 z"
       id="path11" />
    <path
       class="cls-1"
       d="m 539.86,414.87 c 1.89,1.89 1.88,10.57 0,12.45 -1.87,1.86 -9.96,1.79 -12.29,0.75 -1.46,-0.65 -2.03,-1.98 -2.34,-3.45 -0.52,-2.5 -0.69,-8.55 1.68,-10.1 1.64,-1.07 7.64,-0.98 9.75,-0.8 1.03,0.09 2.45,0.41 3.19,1.15 z"
       id="path12" />
    <path
       class="cls-1"
       d="m 622.28,414.87 c 1.89,1.89 1.88,10.57 0,12.45 -1.88,1.88 -9.96,1.79 -12.29,0.75 -1.46,-0.65 -2.03,-1.98 -2.34,-3.45 -0.52,-2.5 -0.69,-8.55 1.68,-10.1 1.64,-1.07 7.64,-0.98 9.75,-0.8 1.03,0.09 2.45,0.41 3.19,1.15 z"
       id="path13" />
    <path
       class="cls-1"
       d="m 727.95,396.37 h -3.15 c 0,0 -0.67,-2.89 -0.67,-2.89 -2.64,4.24 -12.59,4.8 -14.56,-0.19 -1.17,-2.96 -0.5,-7.11 2.39,-8.82 0.82,-0.48 3.38,-1.26 4.27,-1.26 h 8.03 c 1.08,-7.02 -5.11,-6.42 -10,-5.53 v -3.14 c 3.78,-0.44 10.38,-1.07 12.76,2.63 0.28,0.44 0.93,2.34 0.93,2.75 v 16.44 z m -3.68,-10.26 h -7.77 c -0.09,0 -1.54,0.32 -1.72,0.39 -2.61,0.89 -2.91,5.93 -0.32,6.91 2.59,0.98 6.5,0.23 8.46,-1.66 0.22,-0.21 1.35,-1.69 1.35,-1.81 v -3.81 z"
       id="path14" />
    <path
       class="cls-1"
       d="m 490.45,396.37 h -3.15 c 0,0 -0.67,-2.89 -0.67,-2.89 -2.64,4.24 -12.59,4.8 -14.56,-0.19 -1.17,-2.96 -0.5,-7.11 2.39,-8.82 0.82,-0.48 3.38,-1.26 4.27,-1.26 h 8.03 c 1.08,-7.02 -5.11,-6.42 -10,-5.53 v -3.14 c 3.78,-0.44 10.38,-1.07 12.76,2.63 0.28,0.44 0.93,2.34 0.93,2.75 v 16.44 z m -3.69,-10.26 h -7.77 c -0.09,0 -1.54,0.32 -1.72,0.39 -2.61,0.89 -2.91,5.93 -0.32,6.91 2.59,0.98 6.5,0.23 8.46,-1.66 0.22,-0.21 1.35,-1.69 1.35,-1.81 v -3.81 z"
       id="path15" />
    <path
       class="cls-1"
       d="m 631.58,396.37 h -3.16 c 0,0 -0.26,-2.63 -0.26,-2.63 -2.1,2.98 -6.38,3.65 -9.76,2.78 -2.98,-0.77 -4.19,-2.87 -4.46,-5.81 -0.46,-5.03 0.24,-10.85 0.11,-15.93 l 0.32,-0.21 3.14,0.21 0.18,15.87 c 0.44,1.61 0.8,2.34 2.46,2.81 3.27,0.92 7.4,-0.58 7.76,-4.31 0.44,-4.48 -0.39,-9.63 0.02,-14.18 l 0.21,-0.32 c 0.35,-0.24 3.06,-0.31 3.44,0.28 z"
       id="path16" />
    <path
       class="cls-1"
       d="m 580.76,396.37 h -3.16 c 0,0 -0.26,-2.63 -0.26,-2.63 -2.1,2.98 -6.38,3.65 -9.76,2.78 -2.98,-0.77 -4.19,-2.87 -4.46,-5.81 -0.46,-5.03 0.24,-10.85 0.11,-15.93 l 0.32,-0.21 3.14,0.21 0.18,15.87 c 0.44,1.61 0.8,2.34 2.46,2.81 3.27,0.92 7.4,-0.58 7.76,-4.31 0.44,-4.48 -0.39,-9.63 0.02,-14.18 l 0.21,-0.32 c 0.35,-0.24 3.06,-0.31 3.44,0.28 z"
       id="path17" />
    <path
       class="cls-1"
       d="m 429.36,396.37 h -3.42 v -15.39 c 0,-0.11 -0.38,-1.41 -0.47,-1.63 -1.11,-2.73 -6.06,-2.31 -8.08,-0.86 -0.55,0.39 -2.24,2.49 -2.24,3.02 v 14.86 h -3.42 v -21.84 h 3.42 c 0,0 0.13,2.9 0.13,2.9 1.81,-3.9 9.86,-4.15 12.52,-1.46 0.49,0.5 1.57,2.56 1.57,3.17 v 17.23 z"
       id="path18" />
    <path
       class="cls-1"
       d="m 705.01,375.1 0.04,3.12 c -2.77,-0.73 -7.98,-1.7 -10.28,0.38 -2.3,2.08 -2.35,10.48 -0.63,13.02 2.08,3.06 7.91,2.25 10.91,1.07 l -0.02,3.39 c -4.89,1.19 -12.18,1.61 -14.69,-3.82 -1.78,-3.86 -1.69,-12.64 1.54,-15.76 3.01,-2.91 9.42,-2.67 13.14,-1.4 z"
       id="path19" />
    <path
       class="cls-1"
       d="m 642.38,378.22 1.18,-1.85 c 1.57,-1.58 3.98,-2.52 6.2,-1.94 v 3.01 c -2.43,-0.12 -4.84,0.49 -6.28,2.54 -0.19,0.27 -1.1,1.94 -1.1,2.06 v 14.34 h -3.42 v -21.84 h 3.42 z"
       id="path20" />
    <path
       class="cls-1"
       d="m 602.35,378.22 1.18,-1.85 c 1.57,-1.58 3.98,-2.52 6.2,-1.94 v 3.01 c -2.43,-0.12 -4.84,0.49 -6.28,2.54 -0.19,0.27 -1.1,1.94 -1.1,2.06 v 14.34 h -3.42 v -21.84 h 3.42 z"
       id="path21" />
    <rect
       class="cls-1"
       x="436.73001"
       y="374.53"
       width="3.4200001"
       height="21.84"
       id="rect21" />
    <rect
       class="cls-1"
       x="679.77002"
       y="374.53"
       width="3.4200001"
       height="21.84"
       id="rect22" />
    <rect
       class="cls-1"
       x="588.14001"
       y="374.53"
       width="3.4200001"
       height="21.84"
       id="rect23" />
    <path
       class="cls-1"
       d="m 628.69,366.11 c -1.17,1.26 -3.16,4.28 -4.46,5.15 -0.77,0.51 -1.89,0.5 -2.79,0.38 -0.36,-0.05 -0.46,0.15 -0.39,-0.39 l 3.29,-5.13 h 4.34 z"
       id="path23" />
    <path
       class="cls-1"
       d="m 437.18,366.69 c 1.69,-0.5 3.51,-0.13 3.51,1.92 0,2.38 -2.29,2.4 -3.98,1.6 -0.36,-0.8 -0.6,-3.21 0.47,-3.52 z"
       id="path24" />
    <path
       class="cls-1"
       d="m 588.58,366.69 c 1.69,-0.5 3.51,-0.13 3.51,1.92 0,2.38 -2.29,2.4 -3.98,1.6 -0.36,-0.8 -0.6,-3.21 0.47,-3.52 z"
       id="path25" />
    <path
       class="cls-1"
       d="m 680.22,366.69 c 1.69,-0.5 3.51,-0.13 3.51,1.92 0,2.38 -2.29,2.4 -3.98,1.6 -0.36,-0.8 -0.6,-3.21 0.47,-3.52 z"
       id="path26" />
    <path
       class="cls-1"
       d="m 266.6,403.28 c -4.15,-4.85 -9.2,-8.41 -14.84,-11.33 0.3,-5.18 2.92,-9.89 3.73,-14.94 3.31,-20.41 -11.32,-42.54 -31.9,-46.24 -3.34,-0.6 -8.77,0.12 -11.49,-0.93 -1.55,-0.6 -4.22,-4.47 -5.49,-5.81 -6.85,-7.2 -15.11,-10.33 -24.97,-11.3 h -4.42 c -3.48,0.22 -7.32,1.07 -10.7,2.13 -11.58,3.65 -21.51,12.32 -26.28,23.51 -23.87,-10.61 -53.08,-0.98 -60.83,25.09 -0.52,1.74 -1.42,4.79 -1.49,6.52 -0.13,3.1 1.6,5.59 -0.58,8.23 -3.74,4.54 -8.09,6.74 -11.36,12.35 -12.64,21.67 -1.42,51.03 21.98,59.46 20.97,7.55 40.68,-7.6 60.84,-11.03 -4.47,13.86 -13.71,26.69 -18.91,40.53 0,0 -0.01,0.03 -0.03,0.08 -0.72,1.76 -12.41,31.09 1.27,50.24 0,0 0,0 0,0 1.03,1.44 2.21,2.83 3.55,4.15 0,0 0.01,0 0.02,0.02 2,1.71 4.19,2.76 6.38,3.35 6.64,1.79 12.19,-5.35 8.78,-11.32 -2.3,-4.02 -4.12,-8.28 -5.06,-12.91 -2.29,-11.35 1.02,-20.54 5.33,-30.79 4.99,-11.84 11,-23.24 17.57,-34.27 l 12.5,35.2 c 5.4,8.73 11.6,16.68 21.2,20.99 23.34,10.49 51.15,-3.21 57.34,-27.8 0.91,-3.59 0.59,-6.77 0.97,-10.33 0.44,-4.04 6.57,-7.78 9.24,-10.89 12.61,-14.64 9.66,-37.92 -2.36,-51.96 z m -116.72,10.71 c -2.09,3.98 -4.38,4.67 -8.25,6.37 -9.25,4.06 -25.54,10.18 -35.29,11.87 -21.6,3.75 -34.99,-21.95 -19.18,-36.81 2.74,-2.58 6.94,-4.6 9.41,-7.27 2.9,-3.12 1.3,-7.44 1.19,-11.33 -0.2,-6.7 0.68,-10.75 5.11,-15.86 5.14,-5.92 11.84,-8.11 18.41,-7.29 8.09,1 14.82,6.71 17.51,14.41 4.11,11.75 8.59,23.39 12.51,35.2 0.33,1.01 0.7,4.27 0.7,5.37 0,1.3 -1.55,4.27 -2.12,5.35 z m 29.27,-10.7 c -3.73,-1.7 -6.55,-4.88 -7.99,-8.71 -3.56,-9.48 -8.23,-18.58 -11.33,-28.22 -3.22,-10 -4.65,-17.69 2.5,-26.47 7.99,-9.81 23.2,-9.98 32.01,-1.12 2.15,2.16 6.54,10.13 8.61,10.97 1.13,0.46 5.45,0.25 6.98,0.22 4.9,-0.09 7.92,-0.85 12.81,0.96 16.16,5.95 18.31,28.57 4.23,38.12 -6.95,4.72 -31.55,13.36 -40.09,15.08 -3.4,0.68 -5.59,0.16 -7.73,-0.82 z m 73.81,40.37 c -3.04,3.59 -10.74,7.55 -12.44,11.01 -1.66,3.4 0.24,9.59 -0.12,13.66 -0.91,10.05 -9.89,19.21 -20,19.98 -23.78,1.82 -26.16,-30.13 -33.12,-47.67 -1.24,-3.12 -1.34,-6.58 -0.3,-9.77 0.01,-0.04 0.03,-0.08 0.04,-0.12 1.23,-3.75 4.05,-6.79 7.68,-8.33 7.16,-3.03 14.49,-5.76 21.83,-8.27 5.74,-1.96 16.25,-5.96 22.04,-5.47 15.24,1.27 24.5,23.03 14.39,34.97 z"
       id="path27" />
  </g>
</svg>
