<?xml version="1.0" encoding="UTF-8" standalone="no"?>
<svg
   id="Capa_1"
   data-name="Capa 1"
   viewBox="0 0 500.00002 399.99999"
   version="1.1"
   sodipodi:docname="logo-large-blue.svg"
   width="500"
   height="400"
   inkscape:version="1.4 (86a8ad7, 2024-10-11)"
   xmlns:inkscape="http://www.inkscape.org/namespaces/inkscape"
   xmlns:sodipodi="http://sodipodi.sourceforge.net/DTD/sodipodi-0.dtd"
   xmlns="http://www.w3.org/2000/svg"
   xmlns:svg="http://www.w3.org/2000/svg">
  <sodipodi:namedview
     id="namedview28"
     pagecolor="#ffffff"
     bordercolor="#000000"
     borderopacity="0.25"
     inkscape:showpageshadow="2"
     inkscape:pageopacity="0.0"
     inkscape:pagecheckerboard="0"
     inkscape:deskcolor="#d1d1d1"
     inkscape:zoom="0.87371675"
     inkscape:cx="425.19501"
     inkscape:cy="425.19501"
     inkscape:window-width="1680"
     inkscape:window-height="987"
     inkscape:window-x="-8"
     inkscape:window-y="-8"
     inkscape:window-maximized="1"
     inkscape:current-layer="Capa_1" />
  <defs
     id="defs1">
    <style
       id="style1">
      .cls-1 {
        fill: #002a4c;
      }
    </style>
  </defs>
  <g
     id="g28"
     transform="translate(-174.99521,2.5658976)">
    <path
       class="cls-1"
       d="m 670.9,317.3674 v 69.99 h -14.01 l -0.83,-6.04 -2.05,3.02 c -6.96,6.12 -21.95,5.5 -27.88,-1.8 -6.75,-8.31 -6.42,-33.15 1.22,-41.03 5.97,-6.16 20.11,-6.61 26.67,-1.1 l 1.77,2.48 v -25.53 h 15.11 z m -25.6,30.54 c -8.36,0.8 -8.54,10.5 -8.2,17.08 0.39,7.55 2.46,12.77 11.13,11.93 6.93,-0.68 8.12,-6.58 8.38,-12.49 0.35,-8.08 -1.02,-17.51 -11.32,-16.52 z"
       id="path1" />
    <path
       class="cls-1"
       d="m 554.43,317.3674 v 69.99 h -14.01 l -0.83,-6.04 -2.05,3.02 c -6.96,6.12 -21.95,5.5 -27.88,-1.8 -6.75,-8.31 -6.42,-33.15 1.22,-41.03 5.97,-6.16 20.11,-6.61 26.67,-1.1 l 1.77,2.48 v -25.53 h 15.11 z m -25.61,30.54 c -8.36,0.8 -8.54,10.5 -8.2,17.08 0.39,7.55 2.46,12.77 11.13,11.93 6.93,-0.68 8.12,-6.58 8.38,-12.49 0.35,-8.08 -1.02,-17.51 -11.32,-16.52 z"
       id="path2" />
    <path
       class="cls-1"
       d="m 611.29,387.3574 h -13.6 c -0.78,-1.17 -0.82,-2.9 -1.23,-4.27 -0.09,-0.31 0.18,-0.49 -0.42,-0.4 -5.05,6.13 -16.32,7 -23.36,4.4 -8.17,-3.02 -10.25,-12.24 -7.89,-19.98 3.83,-12.59 21.08,-9.17 31.11,-9.67 0.48,-5.34 -1.58,-7.31 -6.72,-7.7 -4.4,-0.33 -9.28,0.12 -13.61,0.83 v -12.9 c 8.61,-0.92 22.72,-2.33 30.14,2.96 2.59,1.85 5.57,6.3 5.57,9.53 v 37.19 z m -15.38,-20.04 c -3.75,0.41 -12.37,-0.96 -15.37,1.25 -2.03,1.5 -2.14,5.61 -0.03,7.13 3.28,2.37 12.99,0.74 15.4,-3.03 z"
       id="path3" />
    <path
       class="cls-1"
       d="m 272.58,387.3574 h -13.6 c -0.78,-1.17 -0.82,-2.9 -1.23,-4.27 -0.09,-0.31 0.18,-0.49 -0.42,-0.4 -5.05,6.13 -16.32,7 -23.36,4.4 -8.17,-3.02 -10.25,-12.24 -7.89,-19.98 3.83,-12.59 21.08,-9.17 31.11,-9.67 0.48,-5.34 -1.58,-7.31 -6.72,-7.7 -4.4,-0.33 -9.28,0.12 -13.61,0.83 v -12.9 c 8.61,-0.92 22.72,-2.33 30.14,2.96 2.59,1.85 5.57,6.3 5.57,9.53 v 37.19 z m -15.38,-20.04 c -3.75,0.41 -12.37,-0.96 -15.37,1.25 -2.03,1.5 -2.14,5.61 -0.03,7.13 3.28,2.37 12.99,0.74 15.4,-3.03 z"
       id="path4" />
    <path
       class="cls-1"
       d="m 468.45,387.3574 h -15.38 v -33.35 c 0,-0.51 -0.72,-2.28 -1.05,-2.8 -2.28,-3.57 -11.51,-2.72 -14.06,0.6 -0.21,0.28 -1.37,2.33 -1.37,2.47 v 33.07 h -15.38 v -49.68 h 15.38 v 5.21 l 3.76,-3.52 c 6.53,-3.71 20.05,-4.29 25.08,2.02 1.28,1.61 3.03,5.96 3.03,7.95 v 38.01 z"
       id="path5" />
    <polygon
       class="cls-1"
       points="352.79,551.17 352.79,565.16 336.86,565.16 336.86,615.12 320.93,615.12 320.93,565.16 304.72,565.16 304.72,551.17 "
       id="polygon5"
       transform="translate(0,-227.7626)" />
    <polygon
       class="cls-1"
       points="179.45,551.17 195.25,551.17 195.66,551.58 195.66,601.12 220.11,601.12 220.11,615.12 179.45,615.12 "
       id="polygon6"
       transform="translate(0,-227.7626)" />
    <path
       class="cls-1"
       d="m 371.75,345.9074 1.81,-3.27 c 1.88,-3.23 4.9,-5.06 8.56,-5.72 0.77,-0.14 4.23,-0.64 4.62,-0.09 l -0.46,13.44 c -5.79,-0.1 -11.76,1.47 -13.84,7.45 -0.14,0.39 -0.69,2.37 -0.69,2.6 v 27.04 h -15.38 v -49.68 h 15.38 z"
       id="path6" />
    <rect
       class="cls-1"
       x="394"
       y="337.6774"
       width="15.38"
       height="49.68"
       id="rect6" />
    <rect
       class="cls-1"
       x="479.98001"
       y="337.6774"
       width="15.38"
       height="49.68"
       id="rect7" />
    <path
       class="cls-1"
       d="m 418.31,300.5574 -3.98,-5.35 c -6.99,-0.31 -11.29,-2.45 -12.56,-9.68 -2.24,-12.72 1.9,-23.73 16.86,-20.14 8.76,2.1 8.93,13.77 7.44,20.96 -0.86,4.17 -3.44,7.62 -7.89,8.17 l 4.39,6.04 z m -6.24,-32.31 c -7.34,0.89 -6.97,9.41 -6.54,15.17 0.31,4.25 1.58,7.44 6.19,8.08 7.15,1 10.37,-1.49 10.86,-8.63 0.57,-8.32 -0.14,-15.88 -10.51,-14.62 z"
       id="path7" />
    <path
       class="cls-1"
       d="m 543.17,275.3074 0.53,-3.45 h 3.33 c 0,0 0.26,0.57 0.26,0.57 -0.38,6.8 0.51,14.14 0.01,20.87 -0.72,9.73 -8.7,10.52 -16.75,9.17 v -3.28 c 6.98,1.6 14.08,0.72 12.89,-8.23 -0.46,0.11 -0.45,0.8 -0.82,1.24 -2.71,3.23 -10.28,3.11 -13.2,0.28 -3.64,-3.52 -3.54,-14.02 -0.66,-17.97 2.97,-4.08 12.5,-4.56 14.41,0.8 z m -7.48,-0.75 c -2.2,0.24 -3.6,1.22 -4.39,3.3 -0.88,2.34 -0.9,8.4 0.12,10.68 1.79,3.99 8.84,3.81 10.97,0.4 1.47,-2.36 1.46,-8.67 0.36,-11.17 -1.19,-2.7 -4.34,-3.51 -7.07,-3.21 z"
       id="path8" />
    <path
       class="cls-1"
       d="m 331.64,262.6774 v 31.84 h -3.28 c -0.14,-0.77 -0.17,-1.57 -0.3,-2.33 -0.05,-0.31 0.23,-0.89 -0.4,-0.7 -0.13,0.04 -1.18,1.6 -1.81,2.04 -3.41,2.4 -9.89,1.95 -12.61,-1.36 -3.26,-3.97 -3.03,-15.25 0.95,-18.79 2.81,-2.5 9.7,-2.81 12.37,0 0.49,0.52 0.67,1.33 1.23,1.66 v -12.35 h 3.85 z m -14.74,27.9 c 2.28,2.1 7.78,1.59 9.64,-1.02 1.86,-2.61 1.81,-9.83 0.11,-12.42 -2.35,-3.59 -9.23,-3.74 -10.91,0.54 -1,2.53 -1,8.87 0.1,11.36 0.16,0.35 0.79,1.3 1.06,1.55 z"
       id="path9" />
    <path
       class="cls-1"
       d="m 383.84,262.6774 v 31.84 h -3.28 c -0.14,-0.77 -0.17,-1.57 -0.3,-2.33 -0.05,-0.31 0.23,-0.89 -0.4,-0.7 -0.13,0.04 -1.18,1.6 -1.81,2.04 -3.41,2.4 -9.89,1.95 -12.61,-1.36 -3.26,-3.97 -3.03,-15.25 0.95,-18.79 2.81,-2.5 9.7,-2.81 12.37,0 0.49,0.52 0.67,1.33 1.23,1.66 v -12.35 h 3.85 z m -14.74,27.9 c 2.28,2.1 7.78,1.59 9.64,-1.02 1.86,-2.61 1.81,-9.83 0.11,-12.42 -2.35,-3.59 -9.23,-3.74 -10.91,0.54 -1,2.53 -1,8.87 0.1,11.36 0.16,0.35 0.79,1.3 1.06,1.55 z"
       id="path10" />
    <path
       class="cls-1"
       d="m 245.66,265.4274 h 3.57 c 0.3,6.16 -0.4,12.68 0,18.8 0.11,1.72 0.38,4.53 1.64,5.77 2.09,2.05 9.28,2.17 11.38,0.12 0.55,-0.54 1.53,-2.69 1.53,-3.41 v -21.27 h 3.85 v 21.55 c 0,1.55 -1.47,4.5 -2.66,5.58 -3.3,3.03 -12.21,3.24 -15.84,0.82 -1.3,-0.87 -3.48,-3.76 -3.48,-5.31 v -22.64 z"
       id="path11" />
    <path
       class="cls-1"
       d="m 408.74,317.1874 c 1.97,1.97 1.96,11.03 0,12.99 -1.96,1.96 -10.39,1.86 -12.82,0.78 -1.53,-0.68 -2.12,-2.07 -2.44,-3.6 -0.54,-2.61 -0.72,-8.92 1.75,-10.54 1.71,-1.12 7.97,-1.02 10.18,-0.83 1.07,0.09 2.56,0.43 3.33,1.2 z"
       id="path12" />
    <path
       class="cls-1"
       d="m 494.72,317.1874 c 1.97,1.97 1.96,11.03 0,12.99 -1.95,1.95 -10.39,1.86 -12.82,0.78 -1.53,-0.68 -2.12,-2.07 -2.44,-3.6 -0.54,-2.61 -0.72,-8.92 1.75,-10.54 1.71,-1.12 7.97,-1.02 10.18,-0.83 1.07,0.09 2.56,0.43 3.33,1.2 z"
       id="path13" />
    <path
       class="cls-1"
       d="m 604.97,294.5174 h -3.28 c 0,0 -0.7,-3.02 -0.7,-3.02 -2.75,4.42 -13.14,5.01 -15.19,-0.19 -1.22,-3.09 -0.52,-7.41 2.5,-9.2 0.86,-0.51 3.53,-1.32 4.45,-1.32 h 8.38 c 1.13,-7.33 -5.33,-6.7 -10.44,-5.77 v -3.28 c 3.94,-0.46 10.82,-1.12 13.31,2.74 0.29,0.46 0.97,2.44 0.97,2.87 v 17.15 z m -3.84,-10.7 h -8.1 c -0.09,0 -1.6,0.34 -1.79,0.4 -2.72,0.92 -3.03,6.18 -0.33,7.2 2.7,1.02 6.78,0.24 8.83,-1.74 0.23,-0.22 1.4,-1.76 1.4,-1.89 v -3.98 z"
       id="path14" />
    <path
       class="cls-1"
       d="m 357.19,294.5174 h -3.28 c 0,0 -0.7,-3.02 -0.7,-3.02 -2.75,4.42 -13.14,5.01 -15.19,-0.19 -1.22,-3.09 -0.52,-7.41 2.5,-9.2 0.86,-0.51 3.53,-1.32 4.45,-1.32 h 8.38 c 1.13,-7.33 -5.33,-6.7 -10.44,-5.77 v -3.28 c 3.94,-0.46 10.82,-1.12 13.31,2.74 0.29,0.46 0.97,2.44 0.97,2.87 v 17.15 z m -3.85,-10.7 h -8.1 c -0.09,0 -1.6,0.34 -1.79,0.4 -2.72,0.92 -3.03,6.18 -0.33,7.2 2.7,1.02 6.78,0.24 8.83,-1.74 0.23,-0.22 1.4,-1.76 1.4,-1.89 v -3.98 z"
       id="path15" />
    <path
       class="cls-1"
       d="m 504.43,294.5174 h -3.3 c 0,0 -0.28,-2.74 -0.28,-2.74 -2.19,3.11 -6.66,3.81 -10.18,2.9 -3.11,-0.81 -4.37,-3 -4.65,-6.06 -0.48,-5.25 0.25,-11.32 0.12,-16.62 l 0.33,-0.22 3.28,0.22 0.19,16.56 c 0.46,1.68 0.83,2.44 2.56,2.93 3.41,0.96 7.72,-0.6 8.1,-4.5 0.46,-4.67 -0.4,-10.05 0.02,-14.8 l 0.22,-0.33 c 0.36,-0.25 3.2,-0.32 3.59,0.29 z"
       id="path16" />
    <path
       class="cls-1"
       d="m 451.41,294.5174 h -3.3 c 0,0 -0.28,-2.74 -0.28,-2.74 -2.19,3.11 -6.66,3.81 -10.18,2.9 -3.11,-0.81 -4.37,-3 -4.65,-6.06 -0.48,-5.25 0.25,-11.32 0.12,-16.62 l 0.33,-0.22 3.28,0.22 0.19,16.56 c 0.46,1.68 0.83,2.44 2.56,2.93 3.41,0.96 7.72,-0.6 8.1,-4.5 0.46,-4.67 -0.4,-10.05 0.02,-14.8 l 0.22,-0.33 c 0.36,-0.25 3.2,-0.32 3.59,0.29 z"
       id="path17" />
    <path
       class="cls-1"
       d="m 293.46,294.5174 h -3.57 v -16.06 c 0,-0.11 -0.4,-1.47 -0.49,-1.7 -1.16,-2.85 -6.32,-2.41 -8.43,-0.9 -0.57,0.41 -2.34,2.6 -2.34,3.15 v 15.51 h -3.57 v -22.78 h 3.57 c 0,0 0.14,3.02 0.14,3.02 1.89,-4.07 10.28,-4.33 13.06,-1.52 0.51,0.52 1.64,2.67 1.64,3.3 v 17.98 z"
       id="path18" />
    <path
       class="cls-1"
       d="m 581.04,272.3274 0.04,3.25 c -2.89,-0.76 -8.33,-1.77 -10.72,0.4 -2.39,2.17 -2.45,10.93 -0.66,13.58 2.16,3.2 8.25,2.35 11.38,1.12 l -0.03,3.54 c -5.11,1.25 -12.71,1.68 -15.32,-3.99 -1.86,-4.02 -1.76,-13.19 1.6,-16.44 3.14,-3.03 9.82,-2.79 13.71,-1.46 z"
       id="path19" />
    <path
       class="cls-1"
       d="m 515.69,275.5774 1.23,-1.93 c 1.64,-1.64 4.15,-2.62 6.47,-2.03 v 3.14 c -2.53,-0.13 -5.05,0.51 -6.55,2.65 -0.2,0.28 -1.14,2.03 -1.14,2.15 v 14.96 h -3.57 v -22.78 h 3.57 v 3.84 z"
       id="path20" />
    <path
       class="cls-1"
       d="m 473.94,275.5774 1.23,-1.93 c 1.64,-1.64 4.15,-2.62 6.47,-2.03 v 3.14 c -2.53,-0.13 -5.05,0.51 -6.55,2.65 -0.2,0.28 -1.14,2.03 -1.14,2.15 v 14.96 h -3.57 v -22.78 h 3.57 v 3.84 z"
       id="path21" />
    <rect
       class="cls-1"
       x="301.14999"
       y="271.7374"
       width="3.5699999"
       height="22.780001"
       id="rect21" />
    <rect
       class="cls-1"
       x="554.70001"
       y="271.7374"
       width="3.5699999"
       height="22.780001"
       id="rect22" />
    <rect
       class="cls-1"
       x="459.10999"
       y="271.7374"
       width="3.5699999"
       height="22.780001"
       id="rect23" />
    <path
       class="cls-1"
       d="m 501.41,262.9574 c -1.22,1.31 -3.29,4.47 -4.65,5.37 -0.8,0.53 -1.97,0.52 -2.91,0.4 -0.38,-0.05 -0.48,0.15 -0.4,-0.41 l 3.43,-5.36 z"
       id="path23" />
    <path
       class="cls-1"
       d="m 301.62,263.5574 c 1.77,-0.52 3.66,-0.14 3.66,2 0,2.48 -2.39,2.51 -4.15,1.67 -0.38,-0.83 -0.62,-3.35 0.49,-3.68 z"
       id="path24" />
    <path
       class="cls-1"
       d="m 459.57,263.5574 c 1.77,-0.52 3.66,-0.14 3.66,2 0,2.48 -2.39,2.51 -4.15,1.67 -0.38,-0.83 -0.62,-3.35 0.49,-3.68 z"
       id="path25" />
    <path
       class="cls-1"
       d="m 555.17,263.5574 c 1.77,-0.52 3.66,-0.14 3.66,2 0,2.48 -2.39,2.51 -4.15,1.67 -0.38,-0.83 -0.62,-3.35 0.49,-3.68 z"
       id="path26" />
    <path
       class="cls-1"
       d="m 379.6,195.1174 c -0.02,0.07 -0.05,0.13 -0.08,0.19 0.03,-0.08 0.06,-0.14 0.08,-0.19 z"
       id="path27" />
    <path
       class="cls-1"
       d="m 527.45,101.3674 c -4.35,-5.080002 -9.66,-8.820002 -15.57,-11.890002 0.31,-5.44 3.06,-10.38 3.92,-15.68 3.47,-21.41 -11.88,-44.63 -33.47,-48.52 -3.51,-0.63 -9.2,0.13 -12.05,-0.97 -1.63,-0.63 -4.43,-4.69 -5.76,-6.1 -7.19,-7.56 -15.86,-10.8399995 -26.2,-11.8499995 h -4.63 c -3.65,0.23 -7.69,1.12 -11.22,2.23 -12.15,3.8299995 -22.56,12.9299995 -27.57,24.6599995 -25.05,-11.13 -55.69,-1.02 -63.82,26.32 -0.54,1.83 -1.49,5.03 -1.56,6.84 -0.14,3.25 1.68,5.87 -0.6,8.64 -3.93,4.77 -8.49,7.07 -11.92,12.96 -13.26,22.740002 -1.49,53.540002 23.06,62.380002 22,7.93 42.68,-7.98 63.83,-11.57 -4.69,14.54 -14.38,28.01 -19.84,42.53 0,0 -0.01,0.03 -0.03,0.09 -0.76,1.84 -13.02,32.62 1.34,52.72 0,0 0,0 0,0 1.09,1.52 2.32,2.97 3.72,4.35 0,0 0.01,0.01 0.02,0.02 2.1,1.8 4.39,2.89 6.69,3.51 6.97,1.87 12.79,-5.62 9.21,-11.88 -2.41,-4.21 -4.33,-8.68 -5.31,-13.54 -2.4,-11.91 1.07,-21.55 5.6,-32.3 5.23,-12.42 11.54,-24.39 18.43,-35.95 l 13.11,36.93 c 5.67,9.16 12.18,17.5 22.24,22.03 24.49,11.01 53.66,-3.37 60.17,-29.17 0.95,-3.77 0.61,-7.11 1.02,-10.84 0.46,-4.24 6.89,-8.17 9.7,-11.42 13.23,-15.36 10.14,-39.78 -2.48,-54.52 z m -122.47,11.24 c -2.19,4.18 -4.59,4.9 -8.66,6.68 -9.71,4.26 -26.79,10.68 -37.03,12.46 -22.66,3.93 -36.71,-23.03 -20.13,-38.620002 2.88,-2.7 7.28,-4.83 9.88,-7.63 3.04,-3.28 1.37,-7.8 1.25,-11.89 -0.21,-7.03 0.71,-11.28 5.36,-16.64 5.39,-6.22 12.43,-8.51 19.31,-7.65 8.49,1.05 15.54,7.04 18.37,15.12 4.31,12.33 9.01,24.54 13.13,36.930002 0.35,1.06 0.73,4.48 0.73,5.64 0,1.37 -1.63,4.48 -2.22,5.61 z m 30.72,-11.23 c -3.91,-1.780002 -6.88,-5.120002 -8.39,-9.140002 -3.74,-9.95 -8.63,-19.49 -11.89,-29.61 -3.38,-10.49 -4.88,-18.56 2.62,-27.77 8.38,-10.29 24.34,-10.47 33.59,-1.18 2.25,2.27 6.86,10.63 9.03,11.51 1.19,0.48 5.72,0.26 7.32,0.23 5.14,-0.09 8.31,-0.89 13.44,1 16.95,6.24 19.21,29.97 4.44,40 -7.29,4.95 -33.1,14.020002 -42.06,15.820002 -3.57,0.72 -5.86,0.17 -8.11,-0.86 z m 77.43,42.36 c -3.18,3.76 -11.27,7.92 -13.05,11.55 -1.75,3.57 0.25,10.07 -0.13,14.33 -0.95,10.54 -10.37,20.15 -20.99,20.97 -24.95,1.91 -27.45,-31.61 -34.75,-50.01 -1.3,-3.27 -1.41,-6.9 -0.31,-10.25 0.01,-0.04 0.03,-0.08 0.04,-0.13 1.3,-3.94 4.25,-7.12 8.06,-8.74 7.51,-3.18 15.21,-6.04 22.91,-8.67 6.02,-2.06 17.05,-6.25 23.13,-5.74 15.99,1.34 25.71,24.16 15.09,36.69 z"
       id="path28" />
  </g>
</svg>
