<?xml version="1.0" encoding="UTF-8"?>
<svg id="Capa_1" data-name="Capa 1" xmlns="http://www.w3.org/2000/svg" viewBox="0 0 850.36 850.36">
  <path d="M714.46,360.33c-12.28-14.35-27.26-24.91-43.96-33.56.89-15.36,8.63-29.29,11.06-44.25,9.8-60.44-33.54-125.98-94.49-136.96-9.91-1.78-25.98.36-34.02-2.75-4.59-1.78-12.5-13.25-16.26-17.22-20.28-21.33-44.76-30.6-73.96-33.46h-13.08c-10.3.65-21.69,3.16-31.68,6.31-34.29,10.81-63.69,36.5-77.82,69.61-70.7-31.41-157.2-2.89-180.15,74.29-1.54,5.15-4.2,14.19-4.42,19.31-.39,9.19,4.75,16.56-1.71,24.38-11.09,13.45-23.96,19.95-33.66,36.58-37.42,64.18-4.22,151.12,65.09,176.09,62.09,22.37,120.47-22.52,180.18-32.66-13.24,41.05-40.6,79.05-56.01,120.05,0,0-.04.08-.1.25-2.14,5.2-36.75,92.06,3.77,148.81,0,0,.01,0,.01.02,3.07,4.28,6.54,8.39,10.51,12.28.02,0,.04.03.06.05,5.93,5.07,12.4,8.17,18.89,9.91,19.66,5.29,36.1-15.86,25.99-33.53-6.81-11.89-12.21-24.51-14.98-38.22-6.78-33.62,3.02-60.84,15.8-91.19,14.76-35.06,32.57-68.83,52.03-101.49l37.02,104.25c16,25.86,34.37,49.41,62.78,62.17,69.12,31.07,151.48-9.51,169.83-82.34,2.68-10.63,1.73-20.06,2.88-30.6,1.3-11.96,19.46-23.05,27.38-32.24,37.33-43.35,28.62-112.3-6.99-153.88ZM368.76,392.05c-6.18,11.79-12.96,13.82-24.44,18.85-27.41,12.02-75.63,30.16-104.51,35.17-63.97,11.1-103.63-65.01-56.81-109.01,8.12-7.63,20.54-13.62,27.88-21.54,8.58-9.25,3.85-22.03,3.52-33.56-.59-19.84,2-31.84,15.14-46.98,15.22-17.54,35.08-24.02,54.51-21.6,23.97,2.97,43.88,19.87,51.85,42.67,12.17,34.81,25.44,69.28,37.06,104.25.99,2.99,2.07,12.65,2.07,15.92,0,3.85-4.59,12.65-6.27,15.84ZM455.47,360.34c-11.04-5.03-19.41-14.45-23.67-25.8-10.56-28.09-24.36-55.03-33.56-83.59-9.53-29.61-13.77-52.38,7.4-78.38,23.65-29.05,68.7-29.56,94.8-3.32,6.36,6.4,19.36,29.99,25.5,32.49,3.36,1.36,16.14.74,20.67.65,14.5-.27,23.47-2.5,37.95,2.83,47.85,17.61,54.22,84.6,12.53,112.91-20.58,13.97-93.44,39.58-118.72,44.65-10.08,2.02-16.55.47-22.89-2.42ZM674.05,479.92c-8.99,10.62-31.82,22.35-36.83,32.59-4.93,10.07.72,28.41-.36,40.46-2.69,29.77-29.28,56.89-59.24,59.18-70.43,5.38-77.49-89.24-98.1-141.18-3.67-9.23-3.98-19.49-.89-28.93.04-.12.08-.24.12-.35,3.66-11.12,11.98-20.1,22.76-24.67,21.2-8.98,42.92-17.05,64.66-24.48,16.99-5.81,48.13-17.64,65.28-16.2,45.14,3.77,72.56,68.19,42.61,103.58Z"/>
</svg>