<?xml version="1.0" encoding="UTF-8"?>
<svg id="Capa_1" data-name="Capa 1" xmlns="http://www.w3.org/2000/svg" viewBox="0 0 851.87 850.36">
  <defs>
    <style>
      .cls-1 {
        fill: #fff;
      }
    </style>
  </defs>
  <path class="cls-1" d="M791.15,415.05v67.09h-13.43l-.79-5.79-1.97,2.9c-6.67,5.86-21.04,5.27-26.72-1.72-6.47-7.97-6.15-31.78,1.17-39.33,5.72-5.9,19.28-6.33,25.56-1.05l1.7,2.38v-24.47h14.48ZM766.61,444.33c-8.02.77-8.18,10.06-7.86,16.38.38,7.24,2.35,12.24,10.67,11.43,6.64-.65,7.78-6.31,8.03-11.97.34-7.75-.98-16.78-10.85-15.84Z"/>
  <path class="cls-1" d="M679.5,415.05v67.09h-13.43l-.79-5.79-1.97,2.9c-6.67,5.86-21.04,5.27-26.72-1.72-6.47-7.97-6.15-31.78,1.17-39.33,5.72-5.9,19.28-6.33,25.56-1.05l1.7,2.38v-24.47h14.48ZM654.96,444.33c-8.02.77-8.18,10.06-7.86,16.38.38,7.24,2.35,12.24,10.67,11.43,6.64-.65,7.78-6.31,8.03-11.97.34-7.75-.98-16.78-10.85-15.84Z"/>
  <path class="cls-1" d="M734.01,482.13h-13.03c-.75-1.13-.78-2.78-1.18-4.09-.09-.29.18-.47-.4-.38-4.84,5.87-15.64,6.71-22.39,4.21-7.83-2.89-9.82-11.73-7.57-19.15,3.67-12.07,20.21-8.79,29.82-9.27.46-5.12-1.51-7.01-6.44-7.38-4.21-.31-8.89.11-13.04.8v-12.36c8.25-.88,21.78-2.23,28.89,2.83,2.49,1.77,5.34,6.04,5.34,9.14v35.65ZM719.26,462.93c-3.59.39-11.86-.92-14.73,1.2-1.94,1.43-2.05,5.37-.03,6.84,3.15,2.27,12.45.71,14.76-2.9v-5.13Z"/>
  <path class="cls-1" d="M409.35,482.13h-13.03c-.75-1.13-.78-2.78-1.18-4.09-.09-.29.18-.47-.4-.38-4.84,5.87-15.64,6.71-22.39,4.21-7.83-2.89-9.82-11.73-7.57-19.15,3.67-12.07,20.21-8.79,29.82-9.27.46-5.12-1.51-7.01-6.44-7.38-4.21-.31-8.89.11-13.04.8v-12.36c8.25-.88,21.78-2.23,28.89,2.83,2.49,1.77,5.34,6.04,5.34,9.14v35.65ZM394.6,462.93c-3.59.39-11.86-.92-14.73,1.2-1.94,1.43-2.05,5.37-.03,6.84,3.15,2.27,12.45.71,14.76-2.9v-5.13Z"/>
  <path class="cls-1" d="M597.09,482.13h-14.75v-31.96c0-.49-.69-2.19-1-2.68-2.18-3.43-11.04-2.61-13.48.58-.2.27-1.32,2.23-1.32,2.37v31.7h-14.75v-47.62h14.75v5l3.6-3.37c6.26-3.55,19.22-4.11,24.04,1.93,1.23,1.54,2.9,5.72,2.9,7.62v36.44Z"/>
  <polygon class="cls-1" points="486.23 420.83 486.23 434.25 470.96 434.25 470.96 482.13 455.69 482.13 455.69 434.25 440.15 434.25 440.15 420.83 486.23 420.83"/>
  <polygon class="cls-1" points="335.62 468.72 359.06 468.72 359.06 482.13 320.09 482.13 320.09 420.83 335.23 420.83 335.62 421.23 335.62 468.72"/>
  <path class="cls-1" d="M504.4,442.41l1.73-3.13c1.81-3.1,4.7-4.85,8.21-5.48.74-.13,4.06-.61,4.43-.08l-.44,12.88c-5.55-.09-11.27,1.41-13.26,7.14-.13.37-.66,2.27-.66,2.49v25.91h-14.75v-47.62h14.75v7.89Z"/>
  <rect class="cls-1" x="525.73" y="434.52" width="14.75" height="47.62"/>
  <rect class="cls-1" x="608.15" y="434.52" width="14.75" height="47.62"/>
  <path class="cls-1" d="M549.03,402.16l-3.82-5.13c-6.7-.29-10.82-2.35-12.04-9.28-2.15-12.19,1.82-22.74,16.16-19.3,8.4,2.02,8.56,13.2,7.13,20.09-.83,4-3.3,7.3-7.56,7.84l4.21,5.79h-4.08ZM543.05,371.19c-7.03.86-6.68,9.02-6.27,14.54.3,4.08,1.52,7.13,5.94,7.75,6.86.96,9.94-1.43,10.41-8.27.54-7.98-.13-15.22-10.07-14.01Z"/>
  <path class="cls-1" d="M668.71,377.95l.51-3.3h3.19s.25.54.25.54c-.37,6.52.49,13.55,0,20-.69,9.33-8.34,10.09-16.06,8.79v-3.14c6.69,1.53,13.5.69,12.36-7.89-.44.11-.44.77-.79,1.18-2.6,3.1-9.85,2.98-12.65.27-3.49-3.38-3.4-13.43-.63-17.22s11.98-4.37,13.81.77ZM661.54,377.24c-2.11.23-3.45,1.17-4.2,3.16-.84,2.24-.86,8.05.12,10.24,1.72,3.83,8.47,3.65,10.51.38,1.41-2.26,1.4-8.31.35-10.71-1.14-2.59-4.16-3.37-6.77-3.08Z"/>
  <path class="cls-1" d="M465.96,365.85v30.52h-3.15c-.13-.74-.16-1.51-.29-2.23-.05-.3.22-.85-.38-.67-.13.04-1.13,1.54-1.73,1.96-3.26,2.3-9.48,1.86-12.09-1.31-3.12-3.8-2.91-14.62.92-18.01,2.69-2.39,9.3-2.69,11.86,0,.47.49.64,1.27,1.18,1.59v-11.84h3.69ZM451.83,392.59c2.19,2.02,7.45,1.52,9.24-.98,1.73-2.42,1.73-9.42.1-11.91-2.25-3.44-8.84-3.58-10.46.51-.95,2.43-.96,8.51.09,10.89.15.34.76,1.24,1.02,1.48Z"/>
  <path class="cls-1" d="M515.99,365.85v30.52h-3.15c-.13-.74-.16-1.51-.29-2.23-.05-.3.22-.85-.38-.67-.13.04-1.13,1.54-1.73,1.96-3.26,2.3-9.48,1.86-12.09-1.31-3.12-3.8-2.91-14.62.92-18.01,2.69-2.39,9.3-2.69,11.86,0,.47.49.64,1.27,1.18,1.59v-11.84h3.69ZM501.86,392.59c2.19,2.02,7.45,1.52,9.24-.98s1.73-9.42.1-11.91c-2.25-3.44-8.84-3.58-10.46.51-.95,2.43-.96,8.51.09,10.89.15.34.76,1.24,1.02,1.48Z"/>
  <path class="cls-1" d="M383.54,368.48h3.42c.28,5.9-.39,12.16,0,18.02.11,1.65.36,4.34,1.58,5.53,2.01,1.96,8.89,2.08,10.91.11.53-.52,1.47-2.58,1.47-3.27v-20.39h3.69v20.65c0,1.48-1.41,4.31-2.55,5.35-3.16,2.9-11.7,3.11-15.18.79-1.25-.83-3.34-3.61-3.34-5.09v-21.7Z"/>
  <path class="cls-1" d="M539.86,414.87c1.89,1.89,1.88,10.57,0,12.45-1.87,1.86-9.96,1.79-12.29.75-1.46-.65-2.03-1.98-2.34-3.45-.52-2.5-.69-8.55,1.68-10.1,1.64-1.07,7.64-.98,9.75-.8,1.03.09,2.45.41,3.19,1.15Z"/>
  <path class="cls-1" d="M622.28,414.87c1.89,1.89,1.88,10.57,0,12.45s-9.96,1.79-12.29.75c-1.46-.65-2.03-1.98-2.34-3.45-.52-2.5-.69-8.55,1.68-10.1,1.64-1.07,7.64-.98,9.75-.8,1.03.09,2.45.41,3.19,1.15Z"/>
  <path class="cls-1" d="M727.95,396.37h-3.15s-.67-2.89-.67-2.89c-2.64,4.24-12.59,4.8-14.56-.19-1.17-2.96-.5-7.11,2.39-8.82.82-.48,3.38-1.26,4.27-1.26h8.03c1.08-7.02-5.11-6.42-10-5.53v-3.14c3.78-.44,10.38-1.07,12.76,2.63.28.44.93,2.34.93,2.75v16.44ZM724.27,386.11h-7.77c-.09,0-1.54.32-1.72.39-2.61.89-2.91,5.93-.32,6.91s6.5.23,8.46-1.66c.22-.21,1.35-1.69,1.35-1.81v-3.81Z"/>
  <path class="cls-1" d="M490.45,396.37h-3.15s-.67-2.89-.67-2.89c-2.64,4.24-12.59,4.8-14.56-.19-1.17-2.96-.5-7.11,2.39-8.82.82-.48,3.38-1.26,4.27-1.26h8.03c1.08-7.02-5.11-6.42-10-5.53v-3.14c3.78-.44,10.38-1.07,12.76,2.63.28.44.93,2.34.93,2.75v16.44ZM486.76,386.11h-7.77c-.09,0-1.54.32-1.72.39-2.61.89-2.91,5.93-.32,6.91s6.5.23,8.46-1.66c.22-.21,1.35-1.69,1.35-1.81v-3.81Z"/>
  <path class="cls-1" d="M631.58,396.37h-3.16s-.26-2.63-.26-2.63c-2.1,2.98-6.38,3.65-9.76,2.78-2.98-.77-4.19-2.87-4.46-5.81-.46-5.03.24-10.85.11-15.93l.32-.21,3.14.21.18,15.87c.44,1.61.8,2.34,2.46,2.81,3.27.92,7.4-.58,7.76-4.31.44-4.48-.39-9.63.02-14.18l.21-.32c.35-.24,3.06-.31,3.44.28v21.44Z"/>
  <path class="cls-1" d="M580.76,396.37h-3.16s-.26-2.63-.26-2.63c-2.1,2.98-6.38,3.65-9.76,2.78-2.98-.77-4.19-2.87-4.46-5.81-.46-5.03.24-10.85.11-15.93l.32-.21,3.14.21.18,15.87c.44,1.61.8,2.34,2.46,2.81,3.27.92,7.4-.58,7.76-4.31.44-4.48-.39-9.63.02-14.18l.21-.32c.35-.24,3.06-.31,3.44.28v21.44Z"/>
  <path class="cls-1" d="M429.36,396.37h-3.42v-15.39c0-.11-.38-1.41-.47-1.63-1.11-2.73-6.06-2.31-8.08-.86-.55.39-2.24,2.49-2.24,3.02v14.86h-3.42v-21.84h3.42s.13,2.9.13,2.9c1.81-3.9,9.86-4.15,12.52-1.46.49.5,1.57,2.56,1.57,3.17v17.23Z"/>
  <path class="cls-1" d="M705.01,375.1l.04,3.12c-2.77-.73-7.98-1.7-10.28.38s-2.35,10.48-.63,13.02c2.08,3.06,7.91,2.25,10.91,1.07l-.02,3.39c-4.89,1.19-12.18,1.61-14.69-3.82-1.78-3.86-1.69-12.64,1.54-15.76,3.01-2.91,9.42-2.67,13.14-1.4Z"/>
  <path class="cls-1" d="M642.38,378.22l1.18-1.85c1.57-1.58,3.98-2.52,6.2-1.94v3.01c-2.43-.12-4.84.49-6.28,2.54-.19.27-1.1,1.94-1.1,2.06v14.34h-3.42v-21.84h3.42v3.68Z"/>
  <path class="cls-1" d="M602.35,378.22l1.18-1.85c1.57-1.58,3.98-2.52,6.2-1.94v3.01c-2.43-.12-4.84.49-6.28,2.54-.19.27-1.1,1.94-1.1,2.06v14.34h-3.42v-21.84h3.42v3.68Z"/>
  <rect class="cls-1" x="436.73" y="374.53" width="3.42" height="21.84"/>
  <rect class="cls-1" x="679.77" y="374.53" width="3.42" height="21.84"/>
  <rect class="cls-1" x="588.14" y="374.53" width="3.42" height="21.84"/>
  <path class="cls-1" d="M628.69,366.11c-1.17,1.26-3.16,4.28-4.46,5.15-.77.51-1.89.5-2.79.38-.36-.05-.46.15-.39-.39l3.29-5.13h4.34Z"/>
  <path class="cls-1" d="M437.18,366.69c1.69-.5,3.51-.13,3.51,1.92,0,2.38-2.29,2.4-3.98,1.6-.36-.8-.6-3.21.47-3.52Z"/>
  <path class="cls-1" d="M588.58,366.69c1.69-.5,3.51-.13,3.51,1.92,0,2.38-2.29,2.4-3.98,1.6-.36-.8-.6-3.21.47-3.52Z"/>
  <path class="cls-1" d="M680.22,366.69c1.69-.5,3.51-.13,3.51,1.92,0,2.38-2.29,2.4-3.98,1.6-.36-.8-.6-3.21.47-3.52Z"/>
  <path class="cls-1" d="M266.6,403.28c-4.15-4.85-9.2-8.41-14.84-11.33.3-5.18,2.92-9.89,3.73-14.94,3.31-20.41-11.32-42.54-31.9-46.24-3.34-.6-8.77.12-11.49-.93-1.55-.6-4.22-4.47-5.49-5.81-6.85-7.2-15.11-10.33-24.97-11.3h-4.42c-3.48.22-7.32,1.07-10.7,2.13-11.58,3.65-21.51,12.32-26.28,23.51-23.87-10.61-53.08-.98-60.83,25.09-.52,1.74-1.42,4.79-1.49,6.52-.13,3.1,1.6,5.59-.58,8.23-3.74,4.54-8.09,6.74-11.36,12.35-12.64,21.67-1.42,51.03,21.98,59.46,20.97,7.55,40.68-7.6,60.84-11.03-4.47,13.86-13.71,26.69-18.91,40.53,0,0-.01.03-.03.08-.72,1.76-12.41,31.09,1.27,50.24,0,0,0,0,0,0,1.03,1.44,2.21,2.83,3.55,4.15,0,0,.01,0,.02.02,2,1.71,4.19,2.76,6.38,3.35,6.64,1.79,12.19-5.35,8.78-11.32-2.3-4.02-4.12-8.28-5.06-12.91-2.29-11.35,1.02-20.54,5.33-30.79,4.99-11.84,11-23.24,17.57-34.27l12.5,35.2c5.4,8.73,11.6,16.68,21.2,20.99,23.34,10.49,51.15-3.21,57.34-27.8.91-3.59.59-6.77.97-10.33.44-4.04,6.57-7.78,9.24-10.89,12.61-14.64,9.66-37.92-2.36-51.96ZM149.88,413.99c-2.09,3.98-4.38,4.67-8.25,6.37-9.25,4.06-25.54,10.18-35.29,11.87-21.6,3.75-34.99-21.95-19.18-36.81,2.74-2.58,6.94-4.6,9.41-7.27,2.9-3.12,1.3-7.44,1.19-11.33-.2-6.7.68-10.75,5.11-15.86,5.14-5.92,11.84-8.11,18.41-7.29,8.09,1,14.82,6.71,17.51,14.41,4.11,11.75,8.59,23.39,12.51,35.2.33,1.01.7,4.27.7,5.37,0,1.3-1.55,4.27-2.12,5.35ZM179.15,403.29c-3.73-1.7-6.55-4.88-7.99-8.71-3.56-9.48-8.23-18.58-11.33-28.22-3.22-10-4.65-17.69,2.5-26.47,7.99-9.81,23.2-9.98,32.01-1.12,2.15,2.16,6.54,10.13,8.61,10.97,1.13.46,5.45.25,6.98.22,4.9-.09,7.92-.85,12.81.96,16.16,5.95,18.31,28.57,4.23,38.12-6.95,4.72-31.55,13.36-40.09,15.08-3.4.68-5.59.16-7.73-.82ZM252.96,443.66c-3.04,3.59-10.74,7.55-12.44,11.01-1.66,3.4.24,9.59-.12,13.66-.91,10.05-9.89,19.21-20,19.98-23.78,1.82-26.16-30.13-33.12-47.67-1.24-3.12-1.34-6.58-.3-9.77.01-.04.03-.08.04-.12,1.23-3.75,4.05-6.79,7.68-8.33,7.16-3.03,14.49-5.76,21.83-8.27,5.74-1.96,16.25-5.96,22.04-5.47,15.24,1.27,24.5,23.03,14.39,34.97Z"/>
</svg>